<svg width="306" height="69" viewBox="0 0 306 69" fill="none" xmlns="http://www.w3.org/2000/svg">
<path d="M51.6849 57.2431C46.1966 62.2258 38.9098 65.2628 30.9133 65.2628C22.9166 65.2628 15.6293 62.226 10.141 57.2431L30.9126 36.4701L51.6849 57.2431Z" fill="#131313"/>
<path d="M30.9133 3.43488C47.9861 3.43488 61.8265 17.2756 61.8265 34.3488C61.8265 37.7038 61.2893 40.933 60.301 43.9578L30.9133 14.5687L1.5249 43.9578C0.536596 40.933 0 37.7037 0 34.3488C6.8693e-06 17.2756 13.8404 3.43489 30.9133 3.43488Z" fill="#131313"/>
<path fill-rule="evenodd" clip-rule="evenodd" d="M219.755 15.8535H228.769V58.1288H219.755V15.8535ZM207.396 21.7396C203.86 17.8855 198.978 15.8535 193.288 15.8535C187.147 15.8535 182.299 18.3112 179.236 22.9713V15.8535H170.182V68.6976H179.236V50.9316C182.299 55.5859 187.197 58.0493 193.433 58.0493C205.014 58.0493 212.796 49.6317 212.796 37.1047C212.796 30.9007 210.927 25.5879 207.391 21.7339L207.396 21.7396ZM192.574 50.1596C185.378 50.1596 180.352 44.6652 180.352 36.7982C180.352 28.9312 185.378 23.59 192.574 23.59C199.771 23.59 204.797 29.1468 204.797 36.7982C204.797 44.4495 199.771 50.1596 192.574 50.1596ZM141.603 27.2567C141.603 30.3161 145.323 31.4456 149.631 32.7511L149.634 32.7457C155.698 34.5837 163.239 36.8758 163.194 45.721C163.194 54.8821 154.701 58.1288 147.424 58.1288C141.144 58.1288 134.824 55.9095 130.936 52.3449L130.858 52.2711L134.13 45.6472L134.264 45.772C137.581 48.7633 143.155 50.8578 147.811 50.8578C151.956 50.8578 154.337 49.2969 154.337 46.578C154.337 43.0551 150.477 41.8833 146.002 40.5248L145.964 40.5134C139.849 38.6579 132.92 36.5557 132.964 27.9492C132.964 24.0214 134.572 20.8314 137.603 18.7086C140.247 16.8638 143.979 15.8535 148.124 15.8535C153.334 15.8535 158.83 17.4769 162.455 20.0765L162.55 20.1446L162.5 20.2524L159.217 26.9899L159.088 26.9105C155.508 24.6741 151.049 23.2835 147.441 23.2835C144.774 23.2835 141.603 23.9759 141.603 27.2567ZM149.634 32.7457L149.614 32.7398H149.637L149.634 32.7457ZM300.175 21.2379C296.903 17.6671 292.068 15.8532 285.805 15.8532C279.805 15.893 274.64 17.94 270.864 21.7667C267.066 25.6218 265.054 30.9154 265.054 37.0677C265.054 49.6678 273.486 58.1286 286.035 58.1286C292.987 58.1286 298.847 55.6893 302.993 51.0836L303.083 50.987L298.22 45.7274L298.119 45.8355C295.161 48.9173 291.111 50.6117 286.73 50.6117C280.438 50.6117 275.682 46.7623 274.259 40.5532H305.015L305.027 40.4224C305.643 31.8707 304.013 25.4171 300.186 21.2379H300.175ZM297.066 33.7414H274.091C275.127 27.2934 279.631 23.2962 285.878 23.2962C292.438 23.2962 296.707 27.2991 297.066 33.7414ZM247.801 23.9532C250.63 18.6518 255.442 15.8535 261.762 15.8535L261.756 15.8592H261.896V24.6911L261.75 24.6798C253.986 24.237 248.512 28.6928 247.801 36.0376V58.1288H238.708V15.8535H247.801V23.9532ZM114.931 52.9406V58.1286H123.861L123.788 30.5088C123.709 21.1944 117.659 15.8532 107.177 15.8532C99.5692 15.8532 95.4348 17.539 89.5636 21.0752L89.4459 21.149L93.1939 27.6084L93.3171 27.5232C97.3395 24.759 101.356 23.3513 105.267 23.3513C111.452 23.3513 114.858 26.2461 114.858 31.5135V32.6147H102.662C92.9362 32.6941 87.121 37.3882 87.121 45.1758C87.121 52.9633 93.065 58.1229 101.586 58.1229C107.446 58.1229 112.046 56.3292 114.931 52.9406ZM103.424 50.7837C98.6449 50.7837 95.6757 48.4849 95.6757 44.7955C95.6757 41.106 98.1575 39.4259 103.961 39.4259H114.852V43.0756C114.393 47.5427 109.586 50.7837 103.424 50.7837ZM224.259 0C221.329 0 219.2 2.26302 219.2 5.36968C219.2 8.47635 221.374 10.6653 224.259 10.6653C227.144 10.6653 229.318 8.38514 229.318 5.36968C229.318 2.35422 227.189 0 224.259 0Z" fill="#131313"/>
</svg>
