<svg width="643" height="643" viewBox="0 0 643 643" fill="none" xmlns="http://www.w3.org/2000/svg">
<path d="M467.465 224.678V156.8C476.444 152.608 484.046 145.955 489.387 137.614C494.728 129.274 497.587 119.589 497.633 109.689V108.13C497.633 79.2621 474.207 55.8601 445.31 55.8601H443.75C429.873 55.8601 416.565 61.3671 406.752 71.1695C396.94 80.972 391.428 94.2669 391.428 108.13V109.689C391.473 119.589 394.333 129.274 399.674 137.614C405.015 145.955 412.617 152.608 421.596 156.8V224.678C395.79 228.625 371.486 239.314 351.145 255.662L164.799 110.67C166.128 105.878 166.822 100.951 166.899 96.0053C166.922 84.3564 163.486 72.9624 157.026 63.2645C150.566 53.5666 141.372 46.0005 130.607 41.5233C119.841 37.0461 107.989 35.859 96.5483 38.112C85.1077 40.3649 74.593 45.9569 66.3341 54.1805C58.0752 62.404 52.4433 72.8898 50.1506 84.3114C47.858 95.7329 49.0077 107.577 53.4542 118.346C57.9007 129.115 65.4443 138.324 75.1308 144.809C84.8174 151.295 96.2117 154.764 107.872 154.78C118.074 154.732 128.084 152.011 136.904 146.889L320.399 289.534C303.915 314.411 295.315 343.672 295.721 373.504C296.126 403.335 305.518 432.352 322.672 456.773L266.863 512.545C262.351 511.104 257.651 510.339 252.915 510.274C243.344 510.282 233.989 513.124 226.034 518.441C218.078 523.758 211.879 531.312 208.22 540.147C204.56 548.983 203.605 558.704 205.474 568.082C207.343 577.46 211.953 586.074 218.722 592.835C225.49 599.596 234.112 604.202 243.5 606.069C252.887 607.936 262.618 606.982 271.462 603.326C280.307 599.67 287.868 593.477 293.191 585.53C298.513 577.583 301.358 568.238 301.366 558.676C301.303 553.944 300.537 549.248 299.092 544.742L354.305 489.567C372.309 503.414 393.247 512.96 415.515 517.474C437.783 521.989 460.79 521.351 482.773 515.611C504.756 509.87 525.133 499.18 542.341 484.357C559.549 469.534 573.133 450.974 582.052 430.097C590.971 409.219 594.987 386.58 593.795 363.912C592.602 341.245 586.231 319.151 575.171 299.323C564.11 279.495 548.654 262.459 529.984 249.52C511.315 236.582 489.929 228.084 467.465 224.678ZM444.578 447.92C434.374 448.201 424.218 446.435 414.709 442.728C405.199 439.021 396.53 433.447 389.214 426.337C381.897 419.226 376.082 410.722 372.111 401.328C368.14 391.934 366.094 381.84 366.094 371.643C366.094 361.445 368.14 351.351 372.111 341.957C376.082 332.563 381.897 324.059 389.214 316.949C396.53 309.838 405.199 304.264 414.709 300.557C424.218 296.85 434.374 295.084 444.578 295.365C464.355 296.057 483.091 304.389 496.84 318.607C510.59 332.824 518.279 351.817 518.289 371.586C518.299 391.355 510.629 410.356 496.894 424.588C483.159 438.819 464.431 447.17 444.656 447.882" fill="#FF7A59"/>
</svg>
