<svg width="475" height="497" viewBox="0 0 475 497" fill="none" xmlns="http://www.w3.org/2000/svg">
<path d="M29.8591 21.4093L304.464 1.12821C338.194 -1.76671 346.862 0.185295 368.07 15.6029L455.728 77.3558C470.186 87.9761 475 90.871 475 102.434V441.108C475 462.332 467.291 474.888 440.311 476.806L121.422 496.112C101.174 497.071 91.5294 494.176 80.9257 480.661L16.377 396.724C4.79731 381.274 0 369.711 0 356.195V55.1559C0 37.8028 7.70878 23.3282 29.8591 21.4093Z" fill="white"/>
<path d="M304.464 1.12821L29.8591 21.4093C7.70878 23.3282 0 37.8028 0 55.1559V356.195C0 369.711 4.79731 381.274 16.377 396.724L80.9257 480.661C91.5294 494.176 101.174 497.071 121.422 496.112L440.311 476.806C467.275 474.888 475 462.332 475 441.108V102.434C475 91.4666 470.666 88.307 457.912 78.9439C457.178 78.4153 456.444 77.8859 455.712 77.3558L368.07 15.6029C346.862 0.185295 338.194 -1.76671 304.464 1.12821ZM128.634 96.8925C102.596 98.646 96.6906 99.043 81.9017 87.0166L44.3007 57.1079C40.4794 53.2369 42.3983 48.4065 52.026 47.4471L316.011 28.1586C338.177 26.2231 349.724 33.9484 358.392 40.6978L403.669 73.5015C405.604 74.4775 410.418 80.2508 404.628 80.2508L132.009 96.6609L128.634 96.8925ZM98.2787 438.213V150.705C98.2787 138.149 102.133 132.36 113.68 131.384L426.795 113.054C437.416 112.095 442.213 118.844 442.213 131.384V416.972C442.213 429.528 440.277 440.148 422.941 441.108L123.307 458.477C105.971 459.437 98.2787 453.664 98.2787 438.213ZM394.058 166.123C395.977 174.807 394.058 183.492 385.373 184.485L370.931 187.347V399.619C358.392 406.369 346.846 410.223 337.201 410.223C321.784 410.223 317.929 405.393 306.383 390.935L211.942 242.35V386.104L241.818 392.87C241.818 392.87 241.818 410.24 217.715 410.24L151.264 414.094C149.329 410.223 151.264 400.579 157.997 398.66L175.35 393.846V203.773L151.264 201.821C149.329 193.136 154.143 180.597 167.641 179.621L238.939 174.824L337.201 325.327V192.177L312.156 189.299C310.221 178.662 317.929 170.937 327.557 169.994L394.058 166.123Z" fill="black"/>
</svg>
